<svg xmlns="http://www.w3.org/2000/svg" viewBox="0 0 285.73 234.93"><defs><style>.cls-1{fill:#fff;}</style></defs><g id="Layer_2" data-name="Layer 2"><g id="Logo_Mono_" data-name="Logo (Mono)"><path class="cls-1" d="M130,96.61l-24.56,52.2h30.15a24.37,24.37,0,0,0,20.56-11.29l-5.31,11.29-23.27,49.47A63.82,63.82,0,0,1,69.8,234.93H0L52.76,122.78a63.83,63.83,0,0,1,57.76-36.66h69.79l-.23.48H149.67A24.39,24.39,0,0,0,130,96.61Z"/><path class="cls-1" d="M285.73,0,233,112.16a63.83,63.83,0,0,1-57.75,36.65H135.57a24.37,24.37,0,0,0,20.56-11.29l24-50.92H149.67a24.39,24.39,0,0,0-19.69,10l4.93-10.49,23.27-49.46A63.83,63.83,0,0,1,215.94,0Z"/><path class="cls-1" d="M118,23.35H87.39a24.39,24.39,0,0,0-22.06,14L42.66,85.56H73.29a24.39,24.39,0,0,0,22.06-14Z"/><path class="cls-1" d="M168.66,212.53h30.63a24.38,24.38,0,0,0,22.06-14L244,150.32H213.39a24.39,24.39,0,0,0-22.06,14Z"/><path class="cls-1" d="M180.3,86.6l-22.67,48.2a23,23,0,0,1-1.5,2.72l24-50.92Z"/></g></g></svg>